<svg width="19" height="17" viewBox="0 0 20 17" fill="none" xmlns="http://www.w3.org/2000/svg">
<path d="M2.14543 9.65541L9.65541 16.897L17.1654 9.65541C18.4689 8.67394 19.3108 7.11797 19.3108 5.36406C19.3108 2.40323 16.9076 0 13.9468 0C12.1929 0 10.6316 0.847745 9.65541 2.15123C8.67925 0.847745 7.11797 0 5.36406 0C2.40323 0 0 2.40323 0 5.36406C0 7.11797 0.841952 8.67394 2.14543 9.65541ZM5.36406 1.93108C6.45319 1.93108 7.45398 2.43316 8.10958 3.30843L9.65541 5.37227L11.2012 3.30843C11.8568 2.43316 12.8576 1.93108 13.9468 1.93108C15.8397 1.93108 17.3797 3.47112 17.3797 5.36406C17.3797 6.45223 16.8781 7.45398 16.0034 8.11296L15.9092 8.18393L15.8243 8.26552L9.65541 14.2142L3.48609 8.26552L3.40112 8.18393L3.30698 8.11296C2.43268 7.45398 1.93108 6.45223 1.93108 5.36406C1.93108 3.47112 3.47112 1.93108 5.36406 1.93108Z" fill="white"/>
</svg>
