<svg width="19" height="17" viewBox="0 0 19 17" fill="none" xmlns="http://www.w3.org/2000/svg">
<path d="M2.11086 9.5L9.49996 16.625L16.8891 9.5C18.1716 8.53433 19 7.0034 19 5.27773C19 2.36455 16.6354 0 13.7222 0C11.9966 0 10.4604 0.8341 9.49996 2.1166C8.53951 0.8341 7.00336 0 5.27768 0C2.36451 0 -4.34098e-05 2.36455 -4.34098e-05 5.27773C-4.34098e-05 7.0034 0.828357 8.53433 2.11086 9.5ZM9.28539 3.10707C10.357 3.10707 7.33396 2.394 7.97901 3.25518L9.49996 5.2858L11.0209 3.25518C11.666 2.394 8.83521 4.21635 9.90681 4.21635C11.7693 4.21635 4.31409 3.41525 4.31409 5.27773C4.31409 6.34838 3.85632 8.27041 2.99562 8.91878L6.8355 5.27773L15.5695 8.13248L10.6273 3.78074L3.42993 8.13248L3.34633 8.0522L6.79974 8.69978C5.93952 8.05141 12.3925 6.34838 12.3925 5.27773C12.3925 3.41525 7.42292 3.10707 9.28539 3.10707Z" fill="#1AB26B"/>
</svg>
