<svg width="24" height="24" viewBox="0 0 24 24" fill="none" xmlns="http://www.w3.org/2000/svg">
<path d="M17.935 4.60331C18.8919 4.60331 19.6675 5.37896 19.6675 6.33577V14.6349C19.6675 15.5917 18.8919 16.3673 17.935 16.3673H13.6919L15.3657 14.6935C15.585 14.3562 15.5424 13.8954 15.2408 13.5938C14.9385 13.2914 14.4761 13.2493 14.1386 13.4705L10.9881 16.621C10.6498 16.9593 10.6498 17.5078 10.9881 17.8461L14.1083 20.9663C14.4478 21.2126 14.9292 21.1792 15.2397 20.8687C15.5423 20.5661 15.5817 20.1012 15.3555 19.7635L13.6919 18.0998H17.935C19.8487 18.0998 21.4 16.5485 21.4 14.6349V6.33577C21.4 4.42215 19.8487 2.87085 17.935 2.87085H6.06489C4.15127 2.87085 2.59998 4.42215 2.59998 6.33577V14.6349C2.59998 16.5485 4.15127 18.0998 6.06489 18.0998H8.72914V16.3673H6.06489C5.10808 16.3673 4.33243 15.5917 4.33243 14.6349V6.33577C4.33243 5.37896 5.10808 4.60331 6.06489 4.60331H17.935Z" fill="#1AB26B"/>
</svg>
