<svg width="24" height="24" viewBox="0 0 24 24" fill="none" xmlns="http://www.w3.org/2000/svg">
<path d="M7.30182 15.1775C7.28635 15.1941 7.26967 15.2123 7.25172 15.2318C7.03267 15.4703 6.62421 15.9149 5.91594 16.3248C5.1543 16.7656 4.01692 17.1802 2.38114 17.169L2.36938 18.8845C4.32102 18.8979 5.75789 18.3984 6.77523 17.8096C7.71449 17.2661 8.27171 16.658 8.5087 16.3994C8.52693 16.3795 8.54381 16.3611 8.55827 16.3455C8.725 16.1662 8.89126 15.9889 9.05958 15.8094C10.2352 14.5556 11.512 13.1939 13.7591 10.2772C15.3855 8.16624 17.6207 7.68752 18.1309 7.67476H18.7018L17.3726 9.00389C17.1488 9.34759 17.1877 9.81241 17.4893 10.114C17.7717 10.3964 18.1972 10.4485 18.5324 10.2702L21.3791 7.42352C21.7141 7.08854 21.7141 6.54544 21.3791 6.21046L18.6462 3.4775C18.3093 3.29184 17.8772 3.34184 17.5916 3.62748C17.2942 3.92485 17.2522 4.38091 17.4656 4.72308L18.7018 5.95922L18.1142 5.95922L18.1066 5.95936C17.1708 5.97607 14.3991 6.63559 12.4001 9.23018C10.2037 12.0811 8.97213 13.3946 7.80692 14.6372L7.8054 14.6389C7.63707 14.8184 7.47011 14.9964 7.30182 15.1775Z" fill="#1ED760"/>
<path d="M7.25196 8.7683C7.26988 8.7878 7.28652 8.80592 7.30197 8.82254C7.47026 9.00356 7.63722 9.18162 7.80555 9.36115L7.80671 9.36239C8.21705 9.8 8.63597 10.2468 9.102 10.766L10.3969 9.64034C9.91205 9.09962 9.47961 8.63843 9.06002 8.19094C8.8917 8.01144 8.72515 7.83381 8.55841 7.65446C8.54396 7.63891 8.52763 7.62109 8.50939 7.60119C8.27241 7.34259 7.71464 6.73394 6.77538 6.19037C5.75804 5.60162 4.32117 5.10213 2.36953 5.1155L2.38128 6.831C4.01707 6.81979 5.15445 7.23442 5.91609 7.67519C6.62436 8.08508 7.03291 8.52983 7.25196 8.7683Z" fill="#1ED760"/>
<path d="M12.4003 14.7698C12.3058 14.6472 12.2132 14.5275 12.1222 14.4104L13.4188 13.2833C13.5298 13.4258 13.6432 13.5722 13.7593 13.7228C15.3856 15.8338 17.6209 16.3125 18.131 16.3252H18.7019L17.3728 14.9961C17.149 14.6524 17.1879 14.1876 17.4895 13.886C17.7719 13.6036 18.1974 13.5515 18.5326 13.7298L21.3793 16.5765C21.7143 16.9115 21.7143 17.4546 21.3793 17.7895L18.6463 20.5225C18.3094 20.7082 17.8774 20.6582 17.5917 20.3725C17.2944 20.0751 17.2524 19.6191 17.4658 19.2769L18.7019 18.0408H18.1144L18.1067 18.0406C17.171 18.0239 14.3992 17.3644 12.4003 14.7698Z" fill="#1ED760"/>
</svg>
